<mxfile host="app.diagrams.net" modified="2023-05-07T17:24:07.673Z" agent="Mozilla/5.0 (Windows NT 10.0; Win64; x64) AppleWebKit/537.36 (KHTML, like Gecko) Chrome/112.0.0.0 Safari/537.36" etag="yEF5rs15q2jcvRbOejnG" version="21.2.9" type="device">
  <diagram name="Page-1" id="wrYhK8QhF0s4Jie3f2bq">
    <mxGraphModel dx="1050" dy="619" grid="1" gridSize="10" guides="1" tooltips="1" connect="1" arrows="1" fold="1" page="1" pageScale="1" pageWidth="850" pageHeight="1100" math="0" shadow="0">
      <root>
        <mxCell id="0" />
        <mxCell id="1" parent="0" />
        <mxCell id="fgDImkI7qzZfxomd1PHw-11" style="edgeStyle=orthogonalEdgeStyle;rounded=0;orthogonalLoop=1;jettySize=auto;html=1;exitX=0.5;exitY=1;exitDx=0;exitDy=0;entryX=0.5;entryY=0;entryDx=0;entryDy=0;" edge="1" parent="1" source="fgDImkI7qzZfxomd1PHw-26" target="fgDImkI7qzZfxomd1PHw-9">
          <mxGeometry relative="1" as="geometry" />
        </mxCell>
        <mxCell id="fgDImkI7qzZfxomd1PHw-2" value="START" style="rounded=1;whiteSpace=wrap;html=1;arcSize=50;" vertex="1" parent="1">
          <mxGeometry x="200" y="100" width="120" height="60" as="geometry" />
        </mxCell>
        <mxCell id="fgDImkI7qzZfxomd1PHw-8" style="edgeStyle=orthogonalEdgeStyle;rounded=0;orthogonalLoop=1;jettySize=auto;html=1;exitX=0.5;exitY=1;exitDx=0;exitDy=0;entryX=0.5;entryY=0;entryDx=0;entryDy=0;" edge="1" parent="1" source="fgDImkI7qzZfxomd1PHw-5" target="fgDImkI7qzZfxomd1PHw-7">
          <mxGeometry relative="1" as="geometry" />
        </mxCell>
        <mxCell id="fgDImkI7qzZfxomd1PHw-5" value="ESP32 Kirim Data ke Node Red via MQTT" style="rounded=0;whiteSpace=wrap;html=1;fillColor=#f8cecc;strokeColor=#b85450;" vertex="1" parent="1">
          <mxGeometry x="200" y="380" width="120" height="60" as="geometry" />
        </mxCell>
        <mxCell id="fgDImkI7qzZfxomd1PHw-10" style="edgeStyle=orthogonalEdgeStyle;rounded=0;orthogonalLoop=1;jettySize=auto;html=1;exitX=1;exitY=0.5;exitDx=0;exitDy=0;entryX=1;entryY=0.5;entryDx=0;entryDy=0;" edge="1" parent="1" source="fgDImkI7qzZfxomd1PHw-7" target="fgDImkI7qzZfxomd1PHw-9">
          <mxGeometry relative="1" as="geometry" />
        </mxCell>
        <mxCell id="fgDImkI7qzZfxomd1PHw-14" style="edgeStyle=orthogonalEdgeStyle;rounded=0;orthogonalLoop=1;jettySize=auto;html=1;exitX=0.5;exitY=1;exitDx=0;exitDy=0;entryX=0.5;entryY=0;entryDx=0;entryDy=0;" edge="1" parent="1" source="fgDImkI7qzZfxomd1PHw-7" target="fgDImkI7qzZfxomd1PHw-13">
          <mxGeometry relative="1" as="geometry" />
        </mxCell>
        <mxCell id="fgDImkI7qzZfxomd1PHw-7" value="Sudah setup tanam?" style="rhombus;whiteSpace=wrap;html=1;" vertex="1" parent="1">
          <mxGeometry x="205" y="470" width="110" height="90" as="geometry" />
        </mxCell>
        <mxCell id="fgDImkI7qzZfxomd1PHw-12" style="edgeStyle=orthogonalEdgeStyle;rounded=0;orthogonalLoop=1;jettySize=auto;html=1;exitX=0.5;exitY=1;exitDx=0;exitDy=0;entryX=0.5;entryY=0;entryDx=0;entryDy=0;" edge="1" parent="1" source="fgDImkI7qzZfxomd1PHw-9" target="fgDImkI7qzZfxomd1PHw-5">
          <mxGeometry relative="1" as="geometry" />
        </mxCell>
        <mxCell id="fgDImkI7qzZfxomd1PHw-9" value="" style="ellipse;whiteSpace=wrap;html=1;aspect=fixed;" vertex="1" parent="1">
          <mxGeometry x="250" y="330" width="20" height="20" as="geometry" />
        </mxCell>
        <mxCell id="fgDImkI7qzZfxomd1PHw-24" style="edgeStyle=orthogonalEdgeStyle;rounded=0;orthogonalLoop=1;jettySize=auto;html=1;exitX=0.5;exitY=1;exitDx=0;exitDy=0;entryX=0.5;entryY=0;entryDx=0;entryDy=0;" edge="1" parent="1" source="fgDImkI7qzZfxomd1PHw-13" target="fgDImkI7qzZfxomd1PHw-22">
          <mxGeometry relative="1" as="geometry" />
        </mxCell>
        <mxCell id="fgDImkI7qzZfxomd1PHw-13" value="Simpan data dalam database server" style="shape=parallelogram;perimeter=parallelogramPerimeter;whiteSpace=wrap;html=1;fixedSize=1;fillColor=#dae8fc;strokeColor=#6c8ebf;" vertex="1" parent="1">
          <mxGeometry x="190" y="590" width="140" height="70" as="geometry" />
        </mxCell>
        <mxCell id="fgDImkI7qzZfxomd1PHw-15" value="tidak" style="text;html=1;strokeColor=none;fillColor=none;align=center;verticalAlign=middle;whiteSpace=wrap;rounded=0;" vertex="1" parent="1">
          <mxGeometry x="330" y="490" width="60" height="30" as="geometry" />
        </mxCell>
        <mxCell id="fgDImkI7qzZfxomd1PHw-16" value="ya" style="text;html=1;strokeColor=none;fillColor=none;align=center;verticalAlign=middle;whiteSpace=wrap;rounded=0;" vertex="1" parent="1">
          <mxGeometry x="250" y="550" width="60" height="30" as="geometry" />
        </mxCell>
        <mxCell id="fgDImkI7qzZfxomd1PHw-20" style="edgeStyle=orthogonalEdgeStyle;rounded=0;orthogonalLoop=1;jettySize=auto;html=1;exitX=0;exitY=0.5;exitDx=0;exitDy=0;entryX=1;entryY=0.5;entryDx=0;entryDy=0;" edge="1" parent="1" source="fgDImkI7qzZfxomd1PHw-17" target="fgDImkI7qzZfxomd1PHw-19">
          <mxGeometry relative="1" as="geometry" />
        </mxCell>
        <mxCell id="fgDImkI7qzZfxomd1PHw-17" value="Kondisi nyala pompa sesuai" style="rhombus;whiteSpace=wrap;html=1;" vertex="1" parent="1">
          <mxGeometry x="205" y="200" width="110" height="110" as="geometry" />
        </mxCell>
        <mxCell id="fgDImkI7qzZfxomd1PHw-18" value="tidak" style="text;html=1;strokeColor=none;fillColor=none;align=center;verticalAlign=middle;whiteSpace=wrap;rounded=0;" vertex="1" parent="1">
          <mxGeometry x="260" y="300" width="60" height="30" as="geometry" />
        </mxCell>
        <mxCell id="fgDImkI7qzZfxomd1PHw-21" style="edgeStyle=orthogonalEdgeStyle;rounded=0;orthogonalLoop=1;jettySize=auto;html=1;exitX=0.5;exitY=1;exitDx=0;exitDy=0;entryX=0;entryY=0.5;entryDx=0;entryDy=0;" edge="1" parent="1" source="fgDImkI7qzZfxomd1PHw-19" target="fgDImkI7qzZfxomd1PHw-9">
          <mxGeometry relative="1" as="geometry" />
        </mxCell>
        <mxCell id="fgDImkI7qzZfxomd1PHw-19" value="Pompa nyala" style="rounded=0;whiteSpace=wrap;html=1;" vertex="1" parent="1">
          <mxGeometry x="60" y="225" width="120" height="60" as="geometry" />
        </mxCell>
        <mxCell id="fgDImkI7qzZfxomd1PHw-25" style="edgeStyle=orthogonalEdgeStyle;rounded=0;orthogonalLoop=1;jettySize=auto;html=1;exitX=1;exitY=0.5;exitDx=0;exitDy=0;entryX=1;entryY=0.5;entryDx=0;entryDy=0;" edge="1" parent="1" source="fgDImkI7qzZfxomd1PHw-22" target="fgDImkI7qzZfxomd1PHw-26">
          <mxGeometry relative="1" as="geometry">
            <mxPoint x="410" y="180" as="targetPoint" />
            <Array as="points">
              <mxPoint x="420" y="745" />
              <mxPoint x="420" y="180" />
            </Array>
          </mxGeometry>
        </mxCell>
        <mxCell id="fgDImkI7qzZfxomd1PHw-29" style="edgeStyle=orthogonalEdgeStyle;rounded=0;orthogonalLoop=1;jettySize=auto;html=1;exitX=0.5;exitY=1;exitDx=0;exitDy=0;entryX=0.5;entryY=0;entryDx=0;entryDy=0;" edge="1" parent="1" source="fgDImkI7qzZfxomd1PHw-22" target="fgDImkI7qzZfxomd1PHw-28">
          <mxGeometry relative="1" as="geometry" />
        </mxCell>
        <mxCell id="fgDImkI7qzZfxomd1PHw-22" value="Akhiri penanaman" style="rhombus;whiteSpace=wrap;html=1;" vertex="1" parent="1">
          <mxGeometry x="205" y="690" width="110" height="110" as="geometry" />
        </mxCell>
        <mxCell id="fgDImkI7qzZfxomd1PHw-27" value="" style="edgeStyle=orthogonalEdgeStyle;rounded=0;orthogonalLoop=1;jettySize=auto;html=1;exitX=0.5;exitY=1;exitDx=0;exitDy=0;entryX=0.5;entryY=0;entryDx=0;entryDy=0;" edge="1" parent="1" source="fgDImkI7qzZfxomd1PHw-2" target="fgDImkI7qzZfxomd1PHw-26">
          <mxGeometry relative="1" as="geometry">
            <mxPoint x="260" y="160" as="sourcePoint" />
            <mxPoint x="260" y="330" as="targetPoint" />
          </mxGeometry>
        </mxCell>
        <mxCell id="fgDImkI7qzZfxomd1PHw-26" value="" style="ellipse;whiteSpace=wrap;html=1;aspect=fixed;" vertex="1" parent="1">
          <mxGeometry x="250" y="170" width="20" height="20" as="geometry" />
        </mxCell>
        <mxCell id="fgDImkI7qzZfxomd1PHw-28" value="END" style="rounded=1;whiteSpace=wrap;html=1;arcSize=50;" vertex="1" parent="1">
          <mxGeometry x="200" y="820" width="120" height="60" as="geometry" />
        </mxCell>
      </root>
    </mxGraphModel>
  </diagram>
</mxfile>
